<?xml version="1.0" encoding="utf-8"?>
<!-- Generator: Adobe Illustrator 21.1.0, SVG Export Plug-In . SVG Version: 6.00 Build 0)  -->
<svg version="1.1" id="Capa_1" xmlns="http://www.w3.org/2000/svg" xmlns:xlink="http://www.w3.org/1999/xlink" x="0px" y="0px"
	 viewBox="0 0 496 496" style="enable-background:new 0 0 496 496;" xml:space="preserve">
<style type="text/css">
	.st0{fill:#F4CB01;}
</style>
<rect x="64" y="360" class="st0" width="64" height="16"/>
<path d="M332.7,240l-80.5,80.5l-66.7,11.1c-19.4,3.2-33.4,19.8-33.4,39.5V448h96.6c1.8,12.4,7.6,23.6,16.2,32H136V328h-16V184h-16
	v144H88V184H72v144H56v152H32v16h432v-16H343.1c8.6-8.4,14.4-19.6,16.2-32H496V240H332.7z M72,344h48v136H72V344z M168,416h85.5
	c-2.4,5-4,10.4-4.8,16H168V416z M304,480c-22.1,0-40-17.9-40-40s17.9-40,40-40s40,17.9,40,40S326.1,480,304,480z M359.4,432
	c-0.8-5.6-2.5-11-4.8-16H392v-16h-48v0.9c-10.2-10.4-24.3-16.9-40-16.9s-29.8,6.5-40,16.9V400h-96v-28.9c0-11.8,8.4-21.7,20.1-23.7
	l71.8-12l79.5-79.5H480v144h-72v16h72v16H359.4z"/>
<path d="M304,416c-13.2,0-24,10.8-24,24s10.8,24,24,24s24-10.8,24-24S317.2,416,304,416z M304,448c-4.4,0-8-3.6-8-8s3.6-8,8-8
	s8,3.6,8,8S308.4,448,304,448z"/>
<rect x="408" y="352" width="56" height="16"/>
<rect y="480" width="16" height="16"/>
<rect x="480" y="480" width="16" height="16"/>
<path class="st0" d="M96,192c-52.9,0-96-43.1-96-96S43.1,0,96,0s96,43.1,96,96S148.9,192,96,192z"/>
<path d="M80,152H64V48h48c17.6,0,32,14.4,32,32s-14.4,32-32,32H80V152z M80,96h32c8.8,0,16-7.2,16-16s-7.2-16-16-16H80V96z"/>
<path class="st0" d="M464,336H284.7l64-64H464V336z"/>
</svg>
