<?xml version="1.0" encoding="utf-8"?>
<!-- Generator: Adobe Illustrator 21.1.0, SVG Export Plug-In . SVG Version: 6.00 Build 0)  -->
<svg version="1.1" id="Layer_1" xmlns="http://www.w3.org/2000/svg" xmlns:xlink="http://www.w3.org/1999/xlink" x="0px" y="0px"
	 viewBox="0 0 496 550.4" style="enable-background:new 0 0 496 550.4;" xml:space="preserve">
<style type="text/css">
	.st0{fill:#F4CB01;}
</style>
<g>
	<rect x="216" y="392" width="96" height="16"/>
	<path d="M456,224V48h16V0H272c-13.2,0-24,10.8-24,24s10.8,24,24,24h168v176H339.7l-48,72H248V172.3l11.6-7.8L273,188l13.9-7.9
		l-32-56L241,132l10.6,18.6L232,163.7V296h-8v-32v-48v-32H95.6c-6.2,0-12.4,1.5-17.9,4.2L22.1,216C8.5,222.8,0,236.5,0,251.8V384h16
		V251.8c0-9.1,5.1-17.4,13.3-21.5l55.5-27.8c3.3-1.7,7-2.5,10.7-2.5H208v16H96c-13.2,0-24,10.8-24,24s10.8,24,24,24h112v120h16v-72
		h76.3l21.3-32H424v-16h-91.7l16-24H464v24h-24v16h24v72h16V224H456z M272,32c-4.4,0-8-3.6-8-8s3.6-8,8-8h184v16h-16H272z M96,248
		c-4.4,0-8-3.6-8-8s3.6-8,8-8h112v16H96z"/>
</g>
<g>
	<path class="st0" d="M400,496c-52.9,0-96-43.1-96-96s43.1-96,96-96s96,43.1,96,96S452.9,496,400,496z"/>
	<path class="st0" d="M155.1,280.6H152V384c0,22.1-17.9,40-40,40s-40-17.9-40-40V280.6h-3.1C27.1,298.1,0,338.7,0,384
		c0,61.8,50.2,112,112,112s112-50.2,112-112C224,338.7,196.9,298.1,155.1,280.6z"/>
</g>
<g>
	<polygon points="400,144 384,144 384,200 328,200 328,216 400,216 	"/>
	<path d="M144,384c0,17.6-14.4,32-32,32s-32-14.4-32-32V280H64v104c0,26.5,21.5,48,48,48s48-21.5,48-48V280h-16V384z"/>
	<path d="M112,408c13.2,0,24-10.8,24-24s-10.8-24-24-24s-24,10.8-24,24S98.8,408,112,408z M112,376c4.4,0,8,3.6,8,8s-3.6,8-8,8
		s-8-3.6-8-8S107.6,376,112,376z"/>
	<path d="M400,360c-22.1,0-40,17.9-40,40s17.9,40,40,40s40-17.9,40-40S422.1,360,400,360z M400,424c-13.2,0-24-10.8-24-24
		s10.8-24,24-24s24,10.8,24,24S413.2,424,400,424z"/>
</g>
<circle cx="23.5" cy="526.9" r="23.5"/>
<circle cx="87.6" cy="526.9" r="23.5"/>
<circle cx="151.8" cy="526.9" r="23.5"/>
<circle cx="215.9" cy="526.9" r="23.5"/>
<circle cx="280.1" cy="526.9" r="23.5"/>
<circle cx="344.2" cy="526.9" r="23.5"/>
<circle cx="408.4" cy="526.9" r="23.5"/>
<circle cx="472.5" cy="526.9" r="23.5"/>
</svg>
