<?xml version="1.0" encoding="utf-8"?>
<!-- Generator: Adobe Illustrator 21.1.0, SVG Export Plug-In . SVG Version: 6.00 Build 0)  -->
<svg version="1.1" id="Capa_1" xmlns="http://www.w3.org/2000/svg" xmlns:xlink="http://www.w3.org/1999/xlink" x="0px" y="0px"
	 viewBox="0 0 499.3 499.3" style="enable-background:new 0 0 499.3 499.3;" xml:space="preserve">
<style type="text/css">
	.st0{fill:#F4CB01;}
</style>
<polygon class="st0" points="136,451.3 112,491.3 104,491.3 104,235.3 136,235.3 "/>
<path d="M128,99.3H80c-17.6,0-32,14.4-32,32s14.4,32,32,32h48c17.6,0,32-14.4,32-32S145.6,99.3,128,99.3z M128,147.3H80
	c-8.8,0-16-7.2-16-16s7.2-16,16-16h48c8.8,0,16,7.2,16,16S136.8,147.3,128,147.3z"/>
<rect x="160" y="195.3" width="16" height="16"/>
<rect x="64" y="195.3" width="80" height="16"/>
<rect x="32" y="195.3" width="16" height="16"/>
<path d="M407.5,125.3l-14.9,5.8c5,12.8,7.5,26.4,7.5,40.3c0,61.8-50.2,112-112,112c-35.6,0-68.5-16.6-89.6-44.9
	c5.8-4.4,9.6-11.3,9.6-19.1v-96c0-8.8-1.7-17.3-4.6-25.1c21.3-24.7,51.9-38.9,84.6-38.9c31.8,0,62.2,13.6,83.5,37.3L383.4,86
	c-24.3-27.1-59-42.7-95.4-42.7c-35.3,0-68.3,14.4-92.4,39.6c-13-19.1-34.8-31.6-59.6-31.6H72c-39.7,0-72,32.3-72,72v96
	c0,13.2,10.8,24,24,24h40v68.3l19.4,13l-22.8,22.8l24,24l-24,24l24,24L64,440v13.5l27.5,45.8h25.1l27.5-45.8V243.3h38.2
	c23.9,35.1,63.1,56,105.8,56c70.6,0,128-57.4,128-128C416,155.4,413.1,140,407.5,125.3z M16,219.3v-96c0-30.9,25.1-56,56-56h64
	c30.9,0,56,25.1,56,56v96c0,4.4-3.6,8-8,8H24C19.6,227.3,16,223.7,16,219.3z M128,449.1l-20.5,34.2h-6.9L80,449.1v-2.5l27.3-27.3
	l-24-24l24-24l-24-24l25.2-25.2L80,303v-59.7h48V449.1z"/>
<path class="st0" d="M288,246.6l-67.3-67.3L256,144l32,32L464,0l35.3,35.3L288,246.6z"/>
</svg>
