<?xml version="1.0" encoding="utf-8"?>
<!-- Generator: Adobe Illustrator 21.1.0, SVG Export Plug-In . SVG Version: 6.00 Build 0)  -->
<svg version="1.1" id="Layer_5" xmlns="http://www.w3.org/2000/svg" xmlns:xlink="http://www.w3.org/1999/xlink" x="0px" y="0px"
	 viewBox="0 0 485 361.5" style="enable-background:new 0 0 485 361.5;" xml:space="preserve">
<style type="text/css">
	.st0{fill:#F4CB01;}
	.st1{fill:none;stroke:#000000;stroke-width:17;stroke-miterlimit:10;}
</style>
<rect x="111.7" y="84.7" class="st0" width="260.7" height="22.6"/>
<rect x="295.7" y="159.4" class="st0" width="76.7" height="22.6"/>
<rect x="109.7" y="159.4" class="st0" width="76.7" height="22.6"/>
<path class="st0" d="M0,314.8L0,314.8c0-26.5,20.4-48,45.5-48h394.1c25.1,0,45.5,21.5,45.5,48v0H0z"/>
<path class="st1" d="M9.9,350v-27.5c0-17.5,13.5-31.7,30.1-31.7h408.8c16.6,0,30.1,14.2,30.1,31.7V350H9.9z"/>
<path class="st1" d="M292.9,170.7L292.9,170.7c0-9.8,7.9-17.7,17.7-17.7h50.7c9.8,0,17.7,7.9,17.7,17.7v0c0,9.8-7.9,17.7-17.7,17.7
	h-50.7C300.8,188.4,292.9,180.5,292.9,170.7z"/>
<path class="st1" d="M105,170.7L105,170.7c0-9.8,7.9-17.7,17.7-17.7h50.7c9.8,0,17.7,7.9,17.7,17.7v0c0,9.8-7.9,17.7-17.7,17.7
	h-50.7C112.9,188.4,105,180.5,105,170.7z"/>
<g>
	<path d="M95.5,226v11.7c0,1.8,0.2,3.6,0.6,5.3h45.2c0.4-1.7,0.6-3.5,0.6-5.3V226H95.5z M375,98.4H109c-31.2,0-56.5,25.3-56.5,56.5
		V243h379v-88.1C431.5,123.8,406.1,98.4,375,98.4z M414.5,226h-345v-71.1c0-21.8,17.7-39.5,39.5-39.5h266
		c21.8,0,39.5,17.7,39.5,39.5V226z"/>
</g>
<path class="st1" d="M379,106.9H105V58.4c0-26.5,21.5-48,48-48h178c26.5,0,48,21.5,48,48V106.9z"/>
<line class="st1" x1="215.8" y1="170.7" x2="272.8" y2="170.7"/>
<g>
	<path d="M142,226v11.7c0,1.8-0.2,3.6-0.6,5.3c-2.4,10.3-11.6,17.9-22.6,17.9s-20.2-7.7-22.6-17.9c-0.4-1.7-0.6-3.5-0.6-5.3V226h-17
		v11.7c0,1.8,0.1,3.6,0.3,5.3c2.6,19.7,19.5,34.9,39.9,34.9s37.3-15.2,39.9-34.9c0.2-1.8,0.3-3.5,0.3-5.3V226H142z"/>
</g>
<g>
	<path d="M386.5,226v11.7c0,1.8-0.2,3.6-0.6,5.3c-2.4,10.3-11.6,17.9-22.6,17.9s-20.2-7.7-22.6-17.9c-0.4-1.7-0.6-3.5-0.6-5.3V226
		h-17v11.7c0,1.8,0.1,3.6,0.3,5.3c2.6,19.7,19.5,34.9,39.9,34.9s37.3-15.2,39.9-34.9c0.2-1.8,0.3-3.5,0.3-5.3V226H386.5z"/>
</g>
</svg>
