<?xml version="1.0" encoding="utf-8"?>
<!-- Generator: Adobe Illustrator 21.1.0, SVG Export Plug-In . SVG Version: 6.00 Build 0)  -->
<svg version="1.1" id="Layer_5" xmlns="http://www.w3.org/2000/svg" xmlns:xlink="http://www.w3.org/1999/xlink" x="0px" y="0px"
	 viewBox="0 0 512 512" style="enable-background:new 0 0 512 512;" xml:space="preserve">
<style type="text/css">
	.st0{fill:#F4CB01;}
</style>
<g>
	<g>
		<g>
			<path class="st0" d="M392,144h-64V96h64V144z"/>
		</g>
	</g>
	<g>
		<g>
			<path class="st0" d="M264,424h-64v-64h64V424z"/>
		</g>
	</g>
	<g>
		<g>
			<path class="st0" d="M376,472h-64v-64h64V472z"/>
		</g>
	</g>
	<g>
		<g>
			<path class="st0" d="M456,472h-64v-64h64V472z"/>
		</g>
	</g>
	<path d="M504,336l-33.4-168H440v-49.4l18,12.9c4.1,2.9,8.9,4.5,14,4.5c7.7,0,15-3.8,19.5-10.1c3.7-5.2,5.2-11.6,4.1-17.9
		c-1.1-6.3-4.5-11.9-9.7-15.6l-112-80c-8.2-5.8-19.7-5.8-27.9,0l-112,80c-5.2,3.7-8.7,9.2-9.7,15.6c-1.1,6.3,0.4,12.7,4.2,17.9
		c7.4,10.4,23.1,13,33.5,5.6l18-12.9V168h-76.9l-11.1-9.9c-8.8-7.9-23.1-7.8-31.9,0l-144,128c-4.8,4.3-7.6,10.1-8,16.5
		c-0.4,6.4,1.8,12.6,6,17.3c4.6,5.1,11.1,8.1,17.9,8.1c5.9,0,11.5-2.2,16-6.1l8-7.2V504h432V392h16L504,336z M457.4,184L488,336.8
		v7.2H296v-29.2l8,7.2c9.5,8.5,25.4,7.5,33.9-2c4.3-4.8,6.4-11,6-17.4s-3.2-12.3-8-16.5L302.1,256H440v-72L457.4,184z M376,240h-32
		v-64h32V240z M252.6,118.5c-3.5,2.5-8.7,1.6-11.2-1.8c-1.2-1.7-1.7-3.9-1.4-6c0.4-2.1,1.5-3.9,3.2-5.2l112-80c2.7-2,6.6-1.9,9.3,0
		l112,80c1.7,1.2,2.9,3.1,3.2,5.2c0.4,2.1-0.1,4.2-1.4,6c-2.5,3.5-7.7,4.4-11.2,1.9L360,41.8L252.6,118.5z M360,61.5l64,45.7V240
		h-32v-80h-64v80h-32V107.2L360,61.5z M280,184v52.3L221.1,184H280z M37.3,310c-3.2,2.8-8.5,2.5-11.3-0.7c-1.4-1.6-2.1-3.6-2-5.8
		c0.1-2.1,1.1-4.1,2.7-5.5l144-128c1.5-1.3,3.4-2,5.3-2s3.8,0.7,5.3,2l144,128c1.6,1.4,2.5,3.4,2.7,5.5c0.1,2.2-0.6,4.2-2,5.8
		c-2.8,3.2-8.1,3.5-11.3,0.7L176,186.7L37.3,310z M176,208.1l104,92.4V328h-64v-64h-80v64H72v-27.4L176,208.1z M200,328h-48v-48h48
		V328z M72,344h208v144h-96v-96H88v96H72V344z M168,488h-64v-80h64V488z M472,488H296v-96h176V488z M296,376v-16h192v16H296z"/>
</g>
</svg>
