<?xml version="1.0" encoding="utf-8"?>
<!-- Generator: Adobe Illustrator 21.1.0, SVG Export Plug-In . SVG Version: 6.00 Build 0)  -->
<svg version="1.1" id="Layer_5" xmlns="http://www.w3.org/2000/svg" xmlns:xlink="http://www.w3.org/1999/xlink" x="0px" y="0px"
	 viewBox="0 0 512 512" style="enable-background:new 0 0 512 512;" xml:space="preserve">
<style type="text/css">
	.st0{fill:#F4CB01;}
	.st1{fill:none;stroke:#000000;stroke-width:17;stroke-miterlimit:10;}
	.st2{fill:none;stroke:#F4CB01;stroke-width:17;stroke-miterlimit:10;}
</style>
<g>
	<rect x="320.9" y="71.4" class="st0" width="173" height="44.2"/>
	<polygon class="st0" points="178.1,512.8 324.8,295.6 307.1,251.8 130.8,512.8 	"/>
	<path class="st1" d="M500.9,120h-187V47.4c0-15.9,13-29,29-29h129c16,0,29,13.1,29,29V120z"/>
	<rect x="313.9" y="168.4" class="st1" width="187" height="124"/>
	<circle class="st2" cx="407.4" cy="230.4" r="49.8"/>
	<circle class="st1" cx="407.4" cy="230.4" r="40.3"/>
	<line class="st1" x1="320.9" y1="88.4" x2="421.4" y2="88.4"/>
	<line class="st1" x1="441.9" y1="88.4" x2="500.9" y2="88.4"/>
	<rect x="326.6" y="119.8" class="st1" width="25.3" height="48.4"/>
	<rect x="460.9" y="119.8" class="st1" width="25.3" height="48.4"/>
	<rect x="326.6" y="292.6" class="st1" width="25.3" height="211.4"/>
	
		<rect x="393.7" y="296.2" transform="matrix(6.123234e-17 -1 1 6.123234e-17 55.6717 757.1183)" class="st1" width="25.3" height="109"/>
	
		<rect x="393.7" y="375.5" transform="matrix(6.123234e-17 -1 1 6.123234e-17 -23.605 836.395)" class="st1" width="25.3" height="109"/>
	<rect x="460.9" y="292.6" class="st1" width="25.3" height="211.4"/>
	<g>
		<path d="M133.5,415.5l-15.8,17h23.2l15.8-17l148.7-213.1v73.5l-144,211.7l-1.1,1.3l-6.5,9.7l-9.3-2.7h-1.7l18.6,17l0.1,0
			l161-230.3V159.2L133.5,415.5z"/>
	</g>
	<g>
		<path d="M160.3,488.8l-7.7,7.1l-8.2-0.1H28.1v-31.3c0-17.6,14.3-32,32-32h80.8l15.8-17H60.1c-27,0-49,22-49,49v48.3h150.3v-25.3
			L160.3,488.8z"/>
	</g>
</g>
</svg>
