<?xml version="1.0" encoding="utf-8"?>
<!-- Generator: Adobe Illustrator 21.1.0, SVG Export Plug-In . SVG Version: 6.00 Build 0)  -->
<svg version="1.1" id="Layer_1" xmlns="http://www.w3.org/2000/svg" xmlns:xlink="http://www.w3.org/1999/xlink" x="0px" y="0px"
	 viewBox="0 0 570 540.7" style="enable-background:new 0 0 570 540.7;" xml:space="preserve">
<style type="text/css">
	.st0{fill:#F4CB01;}
</style>
<g>
	<path d="M525.8,397.6c-12.2-6.1-26.9-11.7-43.9-16.7c-38.7-11.4-86.6-19.1-138.6-22.4c-3.3,6.8-5.8,14-7.4,21.6
		c52.7,2.9,101.1,10.5,139.8,21.9c20.9,6.2,36.5,12.8,47.8,19.3c17.5,10.1,24.6,20,24.6,27.4c0,12.3-19,31-72.4,46.7
		c-50.8,15-118.5,23.3-190.6,23.3s-139.9-8.3-190.6-23.3C41,479.7,22,461,22,448.7c0-6.1,4.8-13.9,16.2-22.1
		c11.4-8.2,29.5-16.8,56.1-24.7c3.4-1,6.8-2,10.4-2.9c-1.9-4.7-2.9-9.8-2.9-15.1v-6.9c-4.7,1.2-9.2,2.5-13.7,3.8
		c-23.3,6.9-42.2,14.8-56.4,23.7C10.8,417.6,0,432.5,0,448.7c0,27.3,30.5,50.8,88.1,67.8c52.7,15.6,122.7,24.2,196.9,24.2
		c74.2,0,144.1-8.6,196.9-24.2c57.6-17,88.1-40.5,88.1-67.8C570,429.5,554.9,412.1,525.8,397.6z M250.6,357.3
		c-23.8,0.9-46.8,2.6-68.8,5.2V384c0,0.2,0,0.5,0,0.7c22.8-2.8,47-4.6,71.9-5.5C253.4,371.8,252.3,364.4,250.6,357.3z"/>
</g>
<g>
	<rect x="245.8" y="392" width="96" height="16"/>
	<path d="M485.8,224V48h16V0h-200c-13.2,0-24,10.8-24,24s10.8,24,24,24h168v176H369.5l-48,72h-43.7V172.3l11.6-7.8l13.4,23.5
		l13.9-7.9l-32-56l-13.9,7.9l10.6,18.6l-19.6,13.1V296h-8v-32v-48v-32H125.4c-6.2,0-12.4,1.5-17.9,4.2L51.9,216
		c-13.6,6.8-22.1,20.5-22.1,35.8V384h16V251.8c0-9.1,5.1-17.4,13.3-21.5l55.5-27.8c3.3-1.7,7-2.5,10.7-2.5h112.5v16h-112
		c-13.2,0-24,10.8-24,24s10.8,24,24,24h112v120h16v-72h76.3l21.3-32h102.4v-16h-91.7l16-24h115.7v24h-24v16h24v72h16V224H485.8z
		 M301.8,32c-4.4,0-8-3.6-8-8s3.6-8,8-8h184v16h-16H301.8z M125.8,248c-4.4,0-8-3.6-8-8s3.6-8,8-8h112v16H125.8z"/>
</g>
<g>
	<path class="st0" d="M525.8,400c0,7.3-0.8,14.4-2.4,21.3c-9.7,42.7-48,74.7-93.6,74.7c-52.9,0-96-43.1-96-96
		c0-6.8,0.7-13.5,2.1-19.9c1.6-7.6,4.1-14.8,7.4-21.6c15.5-32.2,48.5-54.5,86.6-54.5c52.1,0,94.7,41.8,96,93.6
		C525.8,398.4,525.8,399.2,525.8,400z"/>
	<path class="st0" d="M253.8,384c0,61.8-50.2,112-112,112c-46.7,0-86.8-28.7-103.6-69.4c-2.9-7-5.1-14.4-6.5-22.1
		c-1.3-6.7-1.9-13.5-1.9-20.6c0-45.3,27.1-85.9,68.9-103.4h3.1V384c0,5.3,1,10.4,2.9,15.1c6,14.6,20.3,24.9,37.1,24.9
		c21.9,0,39.6-17.5,40-39.3c0-0.2,0-0.5,0-0.7V280.6h3.1c33.4,14,57.4,42.7,65.7,76.7c1.7,7.1,2.8,14.4,3.1,21.9
		C253.8,380.8,253.8,382.4,253.8,384z"/>
</g>
<g>
	<polygon points="429.8,144 413.8,144 413.8,200 357.8,200 357.8,216 429.8,216 	"/>
	<path d="M173.8,384c0,17.6-14.4,32-32,32s-32-14.4-32-32V280h-16v104c0,26.5,21.5,48,48,48s48-21.5,48-48V280h-16V384z"/>
	<path d="M141.8,408c13.2,0,24-10.8,24-24s-10.8-24-24-24s-24,10.8-24,24S128.6,408,141.8,408z M141.8,376c4.4,0,8,3.6,8,8
		s-3.6,8-8,8s-8-3.6-8-8S137.4,376,141.8,376z"/>
	<path d="M429.8,360c-22.1,0-40,17.9-40,40s17.9,40,40,40s40-17.9,40-40S451.9,360,429.8,360z M429.8,424c-13.2,0-24-10.8-24-24
		s10.8-24,24-24s24,10.8,24,24S443,424,429.8,424z"/>
</g>
</svg>
